<svg xmlns="http://www.w3.org/2000/svg" viewBox="0 0 720 960">
  <g transform="matrix(1,0,0,-1,713.7,289.65)">
    <path d="M0 0C-1.272 6.773-2.739 13.473-4.4 20.1L-352.9-70.2ZM-20.1 67.85C-22.693 74.161-25.493 80.394-28.5 86.55L-353.3-70.25-20.1 67.85M6.3-70.35C6.3-63.445 6.133-56.612 5.8-49.85L-353.55-70.35H6.3M0-140.7C1.239-134.003 2.289-127.219 3.15-120.35L-353.55-70.35 0-140.7M-53.85-270.7C-49.963-265.041-46.263-259.291-42.75-253.45L-353.65-70.4-53.85-270.7M-20.1-208.6C-17.463-202.268-15.029-195.852-12.8-189.35L-353.65-70.4-20.1-208.6M-99.15-324.9C-94.266-320.018-89.549-315.068-85-310.05L-353.65-70.4-99.15-324.9M-215.45-403.95C-209.131-401.346-202.898-398.529-196.75-395.5L-353.65-70.4-215.45-403.95M-153.35-370.15C-147.748-366.327-142.231-362.311-136.8-358.1L-353.65-70.4-153.35-370.15M-153.35 229.5C-159.026 233.395-164.793 237.112-170.65 240.65-231.391 137.452-292.157 34.235-352.95-69-353.05-69.233-353.167-69.467-353.3-69.7L-353.45-69.95-353.2-69.7C-353.1-69.467-352.983-69.25-352.85-69.05-286.347 30.464-219.847 129.981-153.35 229.5M-99.15 184.2C-104.031 189.083-108.981 193.8-114 198.35L-353.15-69.85-99.15 184.2M-283.3 283.35C-290.001 284.588-296.785 285.654-303.65 286.55L-353.65-70.15-283.3 283.35M-353.65-70.15-215.5 263.3C-221.837 265.919-228.254 268.352-234.75 270.6L-353.65-70.15M-353.7 289.65C-360.605 289.65-367.438 289.483-374.2 289.15L-353.7-70.3V289.65M-554.05 229.5C-559.67 225.64-565.22 221.606-570.7 217.4L-353.7-70.3-554.05 229.5M-353.7-70.45V-70.4L-353.75-70.45V-70.4L-653.55-270.7C-649.684-276.328-645.651-281.862-641.45-287.3L-353.8-70.5H-353.75L-353.8-70.55-491.95-403.95C-485.618-406.587-479.218-409.02-472.75-411.25L-353.7-70.45M-687.35-208.6C-684.705-214.936-681.872-221.186-678.85-227.35L-353.75-70.4-687.35-208.6M-66 146.6-353.35-70.15-53.85 130C-57.708 135.603-61.758 141.136-66 146.6M-424.05 283.35C-430.835 282.079-437.552 280.629-444.2 279L-353.75-70.15-424.05 283.35M-491.9 263.3C-498.231 260.68-504.481 257.863-510.65 254.85L-353.75-70.15-491.9 263.3M-653.55 130C-657.444 124.314-661.16 118.547-664.7 112.7L-353.8-70.3-653.55 130M-608.25 184.2C-613.134 179.318-617.851 174.368-622.4 169.35L-353.7-70.35-608.25 184.2M-687.35 67.85C-689.969 61.513-692.402 55.096-694.65 48.6L-354.05-70.25-707.4 0C-708.64-6.667-709.706-13.401-710.6-20.2L-353.9-70.3-687.35 67.85M-713.7-70.35C-713.7-77.255-713.533-84.089-713.2-90.85L-353.8-70.35H-713.7M-707.4-140.7C-706.136-147.463-704.686-154.146-703.05-160.75L-353.75-70.35-707.4-140.7M-608.25-324.9C-603.368-329.784-598.418-334.501-593.4-339.05L-353.85-70.55-608.25-324.9M-424-424.05C-417.337-425.292-410.603-426.342-403.8-427.2L-353.7-70.5-424-424.05M-353.7-430.35C-346.795-430.35-339.962-430.183-333.2-429.85L-353.7-70.5V-430.35M-283.35-424.05C-276.596-422.785-269.93-421.335-263.35-419.7L-353.7-70.5-283.35-424.05M-554.05-370.2C-548.38-374.085-542.63-377.785-536.8-381.3L-353.95-70.85Z" fill="#000000"/>
  </g>
  <path d="M60.00 930.77 L83.06 930.77 L92.66 930.34 L99.61 929.06 L104.70 926.50 L108.70 922.18 L111.29 915.41 L112.16 905.46 L111.55 898.84 L109.72 894.58 L106.09 891.87 L100.09 889.86 L106.81 887.45 L110.95 883.85 L113.10 878.53 L113.81 870.97 L113.81 862.74 L113.30 854.89 L111.76 849.38 L109.08 845.73 L105.18 843.44 L98.32 842.26 L86.73 841.86 L60.00 841.86 L60.00 930.77 Z M83.11 915.57 L83.11 895.80 L84.43 895.84 L85.41 895.85 L88.20 896.27 L89.75 897.52 L90.45 900.76 L90.68 907.12 L90.49 910.66 L89.91 912.95 L89.03 914.32 L87.91 915.08 L86.09 915.42 L83.11 915.57 Z M83.11 881.95 L83.11 857.08 L87.11 857.54 L89.33 858.61 L90.35 860.99 L90.68 865.38 L90.68 873.65 L90.38 878.24 L89.47 880.58 L87.28 881.53 L83.11 881.95 Z M162.02 930.77 L175.27 841.86 L151.60 841.86 L150.44 857.84 L142.15 857.84 L140.78 841.86 L116.82 841.86 L128.58 930.77 L162.02 930.77 Z M149.79 873.60 L148.03 890.48 L146.28 910.89 L143.42 888.83 L141.88 873.60 L149.79 873.60 Z M230.84 930.77 L230.84 841.86 L210.58 841.86 L198.56 882.28 L198.56 841.86 L179.23 841.86 L179.23 930.77 L198.56 930.77 L211.51 890.74 L211.51 930.77 L230.84 930.77 Z M293.17 898.05 L270.06 898.05 L270.06 906.11 L269.89 912.33 L269.39 915.67 L268.29 917.11 L266.27 917.59 L264.46 917.18 L263.35 915.94 L262.78 913.01 L262.59 907.48 L262.59 864.81 L262.78 859.86 L263.35 856.94 L264.50 855.52 L266.42 855.04 L268.55 855.58 L269.85 857.19 L270.54 860.35 L270.76 865.53 L270.76 876.08 L266.11 876.08 L266.11 889.59 L293.17 889.59 L293.17 841.86 L278.62 841.86 L276.48 848.24 L273.81 844.63 L270.52 842.06 L266.60 840.51 L262.03 840.00 L256.40 840.71 L251.13 842.83 L246.67 845.99 L243.42 849.82 L241.28 854.11 L240.12 858.59 L239.63 864.32 L239.47 872.34 L239.47 898.77 L239.81 909.76 L240.84 917.27 L243.49 922.80 L248.71 927.83 L256.18 931.45 L265.55 932.65 L274.85 931.60 L282.42 928.47 L287.94 923.91 L291.13 918.56 L292.66 911.53 L293.17 901.90 L293.17 898.05 Z M321.96 930.77 L361.12 930.77 L361.12 912.98 L345.07 912.98 L345.07 896.13 L359.36 896.13 L359.36 879.21 L345.07 879.21 L345.07 841.86 L321.96 841.86 L321.96 930.77 Z M404.38 930.77 L417.63 841.86 L393.96 841.86 L392.80 857.84 L384.51 857.84 L383.14 841.86 L359.18 841.86 L370.94 930.77 L404.38 930.77 Z M392.15 873.60 L390.39 890.48 L388.64 910.89 L385.78 888.83 L384.24 873.60 L392.15 873.60 Z M475.56 892.00 L452.45 892.00 L452.45 907.48 L452.26 912.98 L451.69 915.92 L450.51 917.17 L448.44 917.59 L446.10 917.08 L444.80 915.55 L444.24 912.35 L444.05 906.78 L444.05 865.48 L444.24 860.12 L444.80 857.01 L446.05 855.54 L448.26 855.04 L450.40 855.54 L451.64 857.01 L452.24 860.33 L452.45 866.31 L452.45 877.45 L475.56 877.45 L475.56 873.99 L475.07 862.21 L473.61 854.45 L470.49 849.04 L464.99 844.34 L457.54 841.09 L448.55 840.00 L439.28 840.92 L431.80 843.67 L426.32 848.07 L423.06 853.87 L421.46 862.01 L420.92 873.44 L420.92 899.42 L421.08 907.83 L421.57 913.83 L422.89 918.55 L425.51 923.09 L429.40 927.06 L434.56 930.08 L440.79 932.01 L447.88 932.65 L457.21 931.66 L464.75 928.70 L470.25 924.25 L473.47 918.84 L475.03 911.29 L475.56 900.45 L475.56 892.00 Z M483.86 930.77 L522.40 930.77 L522.40 912.98 L506.97 912.98 L506.97 896.13 L521.42 896.13 L521.42 879.21 L506.97 879.21 L506.97 859.67 L523.95 859.67 L523.95 841.86 L483.86 841.86 L483.86 930.77 Z M597.00 930.77 L597.00 912.98 L583.25 912.98 L583.25 841.86 L560.14 841.86 L560.14 912.98 L546.47 912.98 L546.47 930.77 L597.00 930.77 Z M660.00 930.77 L648.24 841.86 L613.15 841.86 L599.79 930.77 L624.18 930.77 L627.81 896.88 L630.23 868.66 L632.08 892.88 L634.01 914.25 L635.61 930.77 L660.00 930.77 Z" fill="#000000"/>
</svg>
