<svg xmlns="http://www.w3.org/2000/svg" xmlns:xlink="http://www.w3.org/1999/xlink" xmlns:inkscape="http://www.inkscape.org/namespaces/inkscape" version="1.1" width="720" height="720" viewBox="0 0 720 720">
<defs>
<clipPath id="clip_1">
<path transform="matrix(1,0,0,-1,0,720)" d="M0 720H720V0H0Z"/>
</clipPath>
</defs>
<g inkscape:groupmode="layer" inkscape:label="BACK">
<path transform="matrix(1,0,0,-1,0,720)" d="M0 0H720V720H0Z"/>
</g>
<g inkscape:groupmode="layer" inkscape:label="Layer 1">
<g clip-path="url(#clip_1)">
<path transform="matrix(1,0,0,-1,713.7,289.65)" d="M0 0C-1.272 6.773-2.739 13.473-4.4 20.1L-352.9-70.2ZM-20.1 67.85C-22.693 74.161-25.493 80.394-28.5 86.55L-353.3-70.25-20.1 67.85M6.3-70.35C6.3-63.445 6.133-56.612 5.8-49.85L-353.55-70.35H6.3M0-140.7C1.239-134.003 2.289-127.219 3.15-120.35L-353.55-70.35 0-140.7M-53.85-270.7C-49.963-265.041-46.263-259.291-42.75-253.45L-353.65-70.4-53.85-270.7M-20.1-208.6C-17.463-202.268-15.029-195.852-12.8-189.35L-353.65-70.4-20.1-208.6M-99.15-324.9C-94.266-320.018-89.549-315.068-85-310.05L-353.65-70.4-99.15-324.9M-215.45-403.95C-209.131-401.346-202.898-398.529-196.75-395.5L-353.65-70.4-215.45-403.95M-153.35-370.15C-147.748-366.327-142.231-362.311-136.8-358.1L-353.65-70.4-153.35-370.15M-153.35 229.5C-159.026 233.395-164.793 237.112-170.65 240.65-231.391 137.452-292.157 34.235-352.95-69-353.05-69.233-353.167-69.467-353.3-69.7L-353.45-69.95-353.2-69.7C-353.1-69.467-352.983-69.25-352.85-69.05-286.347 30.464-219.847 129.981-153.35 229.5M-99.15 184.2C-104.031 189.083-108.981 193.8-114 198.35L-353.15-69.85-99.15 184.2M-283.3 283.35C-290.001 284.588-296.785 285.654-303.65 286.55L-353.65-70.15-283.3 283.35M-353.65-70.15-215.5 263.3C-221.837 265.919-228.254 268.352-234.75 270.6L-353.65-70.15M-353.7 289.65C-360.605 289.65-367.438 289.483-374.2 289.15L-353.7-70.3V289.65M-554.05 229.5C-559.67 225.64-565.22 221.606-570.7 217.4L-353.7-70.3-554.05 229.5M-353.7-70.45V-70.4L-353.75-70.45V-70.4L-653.55-270.7C-649.684-276.328-645.651-281.862-641.45-287.3L-353.8-70.5H-353.75L-353.8-70.55-491.95-403.95C-485.618-406.587-479.218-409.02-472.75-411.25L-353.7-70.45M-687.35-208.6C-684.705-214.936-681.872-221.186-678.85-227.35L-353.75-70.4-687.35-208.6M-66 146.6-353.35-70.15-53.85 130C-57.708 135.603-61.758 141.136-66 146.6M-424.05 283.35C-430.835 282.079-437.552 280.629-444.2 279L-353.75-70.15-424.05 283.35M-491.9 263.3C-498.231 260.68-504.481 257.863-510.65 254.85L-353.75-70.15-491.9 263.3M-653.55 130C-657.444 124.314-661.16 118.547-664.7 112.7L-353.8-70.3-653.55 130M-608.25 184.2C-613.134 179.318-617.851 174.368-622.4 169.35L-353.7-70.35-608.25 184.2M-687.35 67.85C-689.969 61.513-692.402 55.096-694.65 48.6L-354.05-70.25-707.4 0C-708.64-6.667-709.706-13.401-710.6-20.2L-353.9-70.3-687.35 67.85M-713.7-70.35C-713.7-77.255-713.533-84.089-713.2-90.85L-353.8-70.35H-713.7M-707.4-140.7C-706.136-147.463-704.686-154.146-703.05-160.75L-353.75-70.35-707.4-140.7M-608.25-324.9C-603.368-329.784-598.418-334.501-593.4-339.05L-353.85-70.55-608.25-324.9M-424-424.05C-417.337-425.292-410.603-426.342-403.8-427.2L-353.7-70.5-424-424.05M-353.7-430.35C-346.795-430.35-339.962-430.183-333.2-429.85L-353.7-70.5V-430.35M-283.35-424.05C-276.596-422.785-269.93-421.335-263.35-419.7L-353.7-70.5-283.35-424.05M-554.05-370.2C-548.38-374.085-542.63-377.785-536.8-381.3L-353.95-70.85Z" fill="#ffffff"/>
</g>
</g>
</svg>
